<?xml version="1.0" encoding="utf-8"?>
<svg xmlns="http://www.w3.org/2000/svg" style="margin: auto; background: none; display: block; shape-rendering: auto;" width="280" height="160" preserveAspectRatio="xMidYMid">
<style type="text/css">
  text {
    text-anchor: middle; font-size: 124px; opacity: 0;
  }
</style>
<g style="transform-origin: 140px 80px; transform: scale(1.72222);">
<g transform="translate(140,80)">
  <g transform="translate(0,0)"><g class="path" style="opacity: 1; transform-origin: -46.26px -3.3644px; animation: 1s linear -0.44s infinite normal forwards running fade-54ed7a03-99cc-43b9-b034-b9db5717640a;"><path d="M13.32 1.94L13.32 1.94L13.32 1.94Q9.36 1.94 7.34 0L7.34 0L7.34 0Q5.33-1.94 5.33-5.40L5.33-5.40L5.47-6.98L5.47-6.98Q5.47-7.56 5.18-7.56L5.18-7.56L4.75-7.27L4.75-7.27Q3.02-4.39 1.15-1.98L1.15-1.98L1.15-1.98Q-0.72 0.43-1.73 1.44L-1.73 1.44L-2.74 2.38L-2.74 2.38Q-3.74 3.31-4.25 3.31L-4.25 3.31L-4.25 3.31Q-4.75 3.31-4.75 2.45L-4.75 2.45L-4.75 2.45Q-4.75 1.30-4.03-0.36L-4.03-0.36L-4.03-0.36Q-2.95-2.74-1.04-6.73L-1.04-6.73L-1.04-6.73Q0.86-10.73 6.59-20.92L6.59-20.92L6.59-20.92Q12.31-31.10 17.71-38.88L17.71-38.88L17.71-38.88Q23.18-46.80 26.21-49.68L26.21-49.68L26.21-49.68Q27.29-50.76 27.86-50.76L27.86-50.76L27.86-50.76Q28.22-50.76 28.22-50.18L28.22-50.18L28.22-50.18Q28.22-50.04 28.08-49.18L28.08-49.18L28.08-49.18Q27.43-46.30 22.97-38.59L22.97-38.59L22.97-38.59Q14.04-24.05 10.01-14.98L10.01-14.98L10.01-14.98Q7.34-9.86 7.34-5.54L7.34-5.54L7.34-5.54Q7.34-3.10 8.64-1.55L8.64-1.55L8.64-1.55Q9.94 0 12.24 0L12.24 0L12.24 0Q15.55 0 18.68-2.66L18.68-2.66L18.68-2.66Q21.82-5.33 23.90-9.07L23.90-9.07L23.90-9.07Q25.99-12.82 27.29-16.70L27.29-16.70L27.29-16.70Q28.58-20.59 28.58-23.26L28.58-23.26L28.58-23.26Q28.58-29.66 22.68-31.03L22.68-31.03L22.68-31.03Q22.61-31.32 22.61-31.61L22.61-31.61L22.61-31.61Q22.61-32.47 23.62-32.62L23.62-32.62L23.62-32.62Q29.16-32.62 33.48-36.76L33.48-36.76L33.48-36.76Q37.80-40.90 37.80-46.30L37.80-46.30L37.80-46.30Q37.80-49.32 35.57-51.66L35.57-51.66L35.57-51.66Q33.34-54.00 27.29-54.00L27.29-54.00L27.29-54.00Q20.74-54.00 16.70-50.40L16.70-50.40L16.70-50.40Q12.67-46.80 12.67-42.19L12.67-42.19L12.67-42.19Q12.67-40.90 13.18-39.82L13.18-39.82L13.18-39.82Q13.46-39.24 13.46-38.88L13.46-38.88L13.46-38.88Q13.46-38.45 13.03-38.45L13.03-38.45L13.03-38.45Q12.67-38.45 12.38-38.59L12.38-38.59L12.38-38.59Q11.88-38.81 11.16-39.17L11.16-39.17L11.16-39.17Q10.44-39.53 9.25-40.97L9.25-40.97L9.25-40.97Q8.06-42.41 8.06-44.14L8.06-44.14L8.06-44.14Q8.06-48.89 13.90-52.31L13.90-52.31L13.90-52.31Q19.73-55.73 28.01-55.73L28.01-55.73L28.01-55.73Q28.87-55.73 29.99-55.66L29.99-55.66L29.99-55.66Q31.10-55.58 33.62-55.01L33.62-55.01L33.62-55.01Q36.14-54.43 38.05-53.46L38.05-53.46L38.05-53.46Q39.96-52.49 41.47-50.40L41.47-50.40L41.47-50.40Q42.98-48.31 42.98-45.50L42.98-45.50L42.98-45.50Q42.98-42.55 41.58-40.07L41.58-40.07L41.58-40.07Q40.18-37.58 37.84-35.89L37.84-35.89L37.84-35.89Q35.50-34.20 32.94-33.12L32.94-33.12L32.94-33.12Q30.38-32.04 27.65-31.46L27.65-31.46L27.65-31.46Q27.14-31.25 27.14-31.03L27.14-31.03L27.14-31.03Q27.14-30.89 27.58-30.67L27.58-30.67L27.58-30.67Q27.79-30.53 28.22-30.31L28.22-30.31L28.22-30.31Q28.66-30.10 29.70-29.16L29.70-29.16L29.70-29.16Q30.74-28.22 31.57-27.11L31.57-27.11L31.57-27.11Q32.40-25.99 33.05-24.05L33.05-24.05L33.05-24.05Q33.70-22.10 33.70-19.94L33.70-19.94L33.70-19.94Q33.70-11.66 27.54-4.86L27.54-4.86L27.54-4.86Q21.38 1.94 13.32 1.94" fill="#006e3e" stroke="none" stroke-width="none" transform="translate(-65.375,22.84559621175131)" style="fill: rgb(0, 110, 62);"></path></g><g class="path" style="opacity: 1; transform-origin: -9.685px -1.5244px; animation: 1s linear -0.22s infinite normal forwards running fade-54ed7a03-99cc-43b9-b034-b9db5717640a;"><path d="M76.32-28.37L76.32-28.37L76.32-28.37Q77.04-28.22 77.04-27.65L77.04-27.65L77.04-27.65Q75.74-23.62 73.48-19.84L73.48-19.84L73.48-19.84Q71.21-16.06 68.94-13.57L68.94-13.57L68.94-13.57Q66.67-11.09 64.62-9.18L64.62-9.18L64.62-9.18Q62.57-7.27 61.27-6.41L61.27-6.41L59.98-5.54L59.98-5.54Q59.76-5.40 59.62-5.18L59.62-5.18L59.62-5.18Q59.47-4.97 59.47-4.90L59.47-4.90L59.47-4.75L59.47-4.75Q59.69 1.66 61.49 5.04L61.49 5.04L61.49 5.04Q61.63 5.47 61.63 5.54L61.63 5.54L61.63 5.54Q61.63 6.12 61.06 6.12L61.06 6.12L61.06 6.12Q59.40 6.12 57.31 3.64L57.31 3.64L57.31 3.64Q55.22 1.15 54.72-1.94L54.72-1.94L54.72-1.94Q54.65-2.30 54.36-2.30L54.36-2.30L54.07-2.23L54.07-2.23Q48.67 0.36 44.14 0.36L44.14 0.36L44.14 0.36Q40.03 0.36 37.19-2.09L37.19-2.09L37.19-2.09Q34.34-4.54 34.34-8.78L34.34-8.78L34.34-8.78Q34.34-12.96 36.43-17.06L36.43-17.06L36.43-17.06Q38.52-21.17 41.90-24.41L41.90-24.41L41.90-24.41Q45.29-27.65 49.10-30.10L49.10-30.10L49.10-30.10Q52.92-32.54 56.88-34.27L56.88-34.27L56.88-34.27Q57.10-34.34 57.24-34.52L57.24-34.52L57.24-34.52Q57.38-34.70 57.38-34.85L57.38-34.85L57.46-34.92L57.46-34.92Q58.97-40.18 61.27-44.24L61.27-44.24L61.27-44.24Q63.58-48.31 66.06-50.51L66.06-50.51L66.06-50.51Q68.54-52.70 70.74-53.78L70.74-53.78L70.74-53.78Q72.94-54.86 74.74-54.86L74.74-54.86L74.74-54.86Q76.46-54.86 76.46-52.42L76.46-52.42L76.46-52.42Q76.46-48.60 72.54-44.82L72.54-44.82L72.54-44.82Q68.62-41.04 64.01-38.81L64.01-38.81L63.50-38.30L63.50-38.30Q59.76-25.99 59.47-8.21L59.47-8.21L59.47-8.21Q59.47-7.78 59.76-7.78L59.76-7.78L60.05-7.92L60.05-7.92Q63.58-10.30 66.31-14.58L66.31-14.58L66.31-14.58Q69.05-18.86 69.05-22.32L69.05-22.32L69.05-22.32Q69.05-25.99 65.52-27.00L65.52-27.00L65.52-27.00Q65.16-27.29 65.16-27.65L65.16-27.65L65.16-27.65Q65.16-28.08 65.88-28.22L65.88-28.22L65.88-28.22Q68.62-28.51 72.14-28.51L72.14-28.51L72.14-28.51Q74.88-28.51 76.32-28.37zM70.78-51.48L70.78-51.48L70.78-51.48Q68.98-51.48 66.71-47.30L66.71-47.30L66.71-47.30Q64.44-43.13 64.44-41.47L64.44-41.47L64.44-41.47Q64.44-41.11 64.66-41.11L64.66-41.11L64.66-41.11Q64.80-41.11 64.87-41.18L64.87-41.18L64.87-41.18Q65.16-41.33 65.59-41.65L65.59-41.65L65.59-41.65Q66.02-41.98 67.21-42.98L67.21-42.98L67.21-42.98Q68.40-43.99 69.30-45.04L69.30-45.04L69.30-45.04Q70.20-46.08 70.92-47.56L70.92-47.56L70.92-47.56Q71.64-49.03 71.64-50.47L71.64-50.47L71.64-50.47Q71.64-51.48 70.78-51.48zM56.38-31.25L56.38-31.25L56.38-31.25Q56.38-31.61 55.94-31.61L55.94-31.61L55.94-31.61Q51.84-29.45 48.85-26.57L48.85-26.57L48.85-26.57Q45.86-23.69 44.50-21.10L44.50-21.10L44.50-21.10Q43.13-18.50 42.34-16.20L42.34-16.20L42.34-16.20Q41.54-13.90 41.47-12.53L41.47-12.53L41.40-11.16L41.40-11.16Q41.54-3.24 48.67-3.24L48.67-3.24L48.67-3.24Q49.82-3.24 51.08-3.46L51.08-3.46L51.08-3.46Q52.34-3.67 52.99-3.89L52.99-3.89L53.64-4.10L53.64-4.10Q54.22-4.32 54.22-5.18L54.22-5.18L54.22-5.18Q53.86-7.70 53.86-11.30L53.86-11.30L53.86-11.30Q53.86-19.87 56.38-31.25" fill="#006e3e" stroke="none" stroke-width="none" transform="translate(-65.375,22.84559621175131)" style="fill: rgb(0, 110, 62);"></path></g><g class="path" style="opacity: 1; transform-origin: 31.575px -3.1494px; animation: 1s linear 0s infinite normal forwards running fade-54ed7a03-99cc-43b9-b034-b9db5717640a;"><path d="M119.74-50.11L119.74-50.11L119.74-50.11Q116.50-50.11 110.88-45.07L110.88-45.07L110.88-45.07Q108.94-43.49 108.58-42.48L108.58-42.48L108.58-42.48Q106.27-36.43 104.04-23.36L104.04-23.36L104.04-23.36Q101.81-10.30 101.81-4.03L101.81-4.03L101.81-4.03Q101.81-2.02 101.95-0.47L101.95-0.47L101.95-0.47Q102.10 1.08 102.24 1.58L102.24 1.58L102.38 2.16L102.38 2.16Q102.53 2.88 102.53 2.95L102.53 2.95L102.53 2.95Q102.53 3.74 101.81 3.74L101.81 3.74L101.81 3.74Q101.02 3.74 99.86 2.84L99.86 2.84L99.86 2.84Q98.71 1.94 97.78 0.36L97.78 0.36L97.78 0.36Q95.98-2.81 95.98-9.22L95.98-9.22L95.98-9.22Q95.98-19.08 100.66-33.34L100.66-33.34L100.66-33.34Q100.87-34.20 100.87-34.49L100.87-34.49L100.87-34.49Q100.87-34.99 100.58-34.99L100.58-34.99L99.65-34.42L99.65-34.42Q94.39-30.17 88.13-21.96L88.13-21.96L88.13-21.96Q85.90-19.08 83.81-15.77L83.81-15.77L83.81-15.77Q81.72-12.46 80.78-10.58L80.78-10.58L79.85-8.71L79.85-8.71Q78.12-4.97 74.59-0.86L74.59-0.86L74.59-0.86Q71.06 3.24 68.69 3.24L68.69 3.24L68.69 3.24Q67.90 3.24 67.90 2.45L67.90 2.45L68.11 1.51L68.11 1.51Q68.90-0.72 74.81-12.28L74.81-12.28L74.81-12.28Q80.71-23.83 84.24-29.95L84.24-29.95L84.24-29.95Q87.62-35.78 90.86-40.97L90.86-40.97L90.86-40.97Q94.10-46.15 95.69-48.38L95.69-48.38L97.27-50.69L97.27-50.69Q97.63-51.19 98.21-51.95L98.21-51.95L98.21-51.95Q98.78-52.70 100.58-54.00L100.58-54.00L100.58-54.00Q102.38-55.30 104.11-55.37L104.11-55.37L104.11-55.37Q104.90-55.37 104.90-54.58L104.90-54.58L104.90-54.58Q104.90-54.07 104.54-53.42L104.54-53.42L104.54-53.42Q95.33-38.66 91.37-30.46L91.37-30.46L91.37-30.46Q91.30-30.02 91.30-29.74L91.30-29.74L91.30-29.74Q91.30-29.30 91.51-29.30L91.51-29.30L91.51-29.30Q91.80-29.30 92.38-29.88L92.38-29.88L99.72-37.30L99.72-37.30Q118.51-55.66 123.98-55.73L123.98-55.73L123.98-55.73Q126-55.73 126-53.35L126-53.35L126-53.35Q126-51.48 124.88-49.50L124.88-49.50L124.88-49.50Q123.77-47.52 122.76-47.52L122.76-47.52L122.76-47.52Q122.33-47.52 122.26-48.10L122.26-48.10L122.26-48.10Q122.18-48.31 122.08-48.64L122.08-48.64L122.08-48.64Q121.97-48.96 121.32-49.54L121.32-49.54L121.32-49.54Q120.67-50.11 119.74-50.11" fill="#006e3e" stroke="none" stroke-width="none" transform="translate(-65.375,22.84559621175131)" style="fill: rgb(0, 110, 62);"></path></g></g>
</g>
</g>
<style id="fade-54ed7a03-99cc-43b9-b034-b9db5717640a" data-anikit="">@keyframes fade-54ed7a03-99cc-43b9-b034-b9db5717640a
{
  0% {
    animation-timing-function: cubic-bezier(0.2057,0.573,0.3723,0.9184);
    opacity: 1;
  }
  100% {
    opacity: 0;
  }
}</style></svg>